<svg xmlns="http://www.w3.org/2000/svg" xmlns:svg="http://www.w3.org/2000/svg" xmlns:xlink="http://www.w3.org/1999/xlink" id="svg7075" width="319.173" height="313.177" version="1.1"><defs id="defs7077"><linearGradient id="linearGradient6357" x1="72.832" x2="72.832" y1="20.395" y2="36.658" gradientUnits="userSpaceOnUse" xlink:href="#linearGradient9462"/><linearGradient id="linearGradient9462"><stop id="stop9464" offset="0" stop-color="#a40000" stop-opacity="1"/><stop id="stop9466" offset="1" stop-color="#ef2929" stop-opacity="1"/></linearGradient><linearGradient id="linearGradient6359" x1="72.832" x2="72.832" y1="20.395" y2="36.658" gradientUnits="userSpaceOnUse" xlink:href="#linearGradient9462"/><linearGradient id="linearGradient6361" x1="72.832" x2="72.832" y1="20.395" y2="36.658" gradientUnits="userSpaceOnUse" xlink:href="#linearGradient9462"/><linearGradient id="linearGradient6363" x1="72.832" x2="72.832" y1="20.395" y2="36.658" gradientUnits="userSpaceOnUse" xlink:href="#linearGradient9462"/><radialGradient id="radialGradient6365" cx="103.591" cy="94.288" r="25.809" fx="103.591" fy="94.288" gradientTransform="matrix(1,0,0,0.84931512,0,14.207706)" gradientUnits="userSpaceOnUse" xlink:href="#linearGradient9498"/><linearGradient id="linearGradient9498"><stop id="stop9500" offset="0" stop-color="#fff" stop-opacity="1"/><stop id="stop9502" offset="1" stop-color="#fff" stop-opacity="0"/></linearGradient><filter id="filter9518" color-interpolation-filters="sRGB"><feGaussianBlur id="feGaussianBlur9520" stdDeviation=".714"/></filter><radialGradient id="radialGradient6367" cx="103.591" cy="94.288" r="25.809" fx="103.591" fy="94.288" gradientTransform="matrix(1,0,0,0.84931512,0,14.207706)" gradientUnits="userSpaceOnUse" xlink:href="#linearGradient9498"/><linearGradient id="linearGradient6285" x1="264.286" x2="264.286" y1="573.262" y2="649.319" gradientTransform="matrix(4,0,0,4,-715.14493,-1918.8008)" gradientUnits="userSpaceOnUse" xlink:href="#linearGradient9356"/><linearGradient id="linearGradient9356"><stop id="stop9358" offset="0" stop-color="#f9f8f8" stop-opacity="1"/><stop id="stop9364" offset=".07" stop-color="#ececec" stop-opacity="1"/><stop id="stop9366" offset=".933" stop-color="#e8e7e7" stop-opacity="1"/><stop id="stop9360" offset="1" stop-color="#b4b3b4" stop-opacity="1"/></linearGradient><linearGradient id="linearGradient6287" x1="248.757" x2="249.814" y1="634.691" y2="664.505" gradientTransform="matrix(4,0,0,4,-715.14493,-1918.8008)" gradientUnits="userSpaceOnUse" xlink:href="#linearGradient9376"/><linearGradient id="linearGradient9376"><stop id="stop9378" offset="0" stop-color="#dad9d9" stop-opacity="1"/><stop id="stop9384" offset=".28" stop-color="#dad9d9" stop-opacity="1"/><stop id="stop9380" offset="1" stop-color="#000" stop-opacity="1"/></linearGradient><filter id="filter10343" color-interpolation-filters="sRGB"><feGaussianBlur id="feGaussianBlur10345" stdDeviation=".743"/></filter></defs><metadata id="metadata7080"/><g id="layer1" transform="translate(-190.41347,-375.77354)"><rect id="rect10647" width="74.286" height="74.286" x="96.107" y="783.719" fill="#888a85" fill-opacity="1" stroke="#888a85" stroke-dasharray="none" stroke-miterlimit="4" stroke-opacity="1" stroke-width=".443" filter="url(#filter10343)" opacity=".722" ry="9.286" transform="matrix(4,0,0,4,-180.00217,-2751.0864)"/><rect id="rect10649" width="297.143" height="297.143" x="193.426" y="377.791" fill="url(#linearGradient6285)" fill-opacity="1" stroke="url(#linearGradient6287)" stroke-dasharray="none" stroke-miterlimit="4" stroke-opacity="1" stroke-width="1.772" ry="37.143"/><path id="path10651" fill="url(#radialGradient6367)" fill-opacity="1" stroke="none" d="m 129.40054,94.287537 c 0,12.106253 -11.55526,21.920313 -25.8094,21.920313 -14.254135,0 -25.809396,-9.81406 -25.809396,-21.920313 0,-12.106254 11.555261,-21.920311 25.809396,-21.920311 14.25414,0 25.8094,9.814057 25.8094,21.920311 z" filter="url(#filter9518)" opacity=".763" transform="matrix(3.4288818,0,0,2.1937586,-70.417176,221.88645)"/><path id="path10653" fill="url(#radialGradient6365)" fill-opacity="1" stroke="none" d="m 129.40054,94.287537 c 0,12.106253 -11.55526,21.920313 -25.8094,21.920313 -14.254135,0 -25.809396,-9.81406 -25.809396,-21.920313 0,-12.106254 11.555261,-21.920311 25.809396,-21.920311 14.25414,0 25.8094,9.814057 25.8094,21.920311 z" filter="url(#filter9518)" opacity=".763" transform="matrix(1.4249037,0,0,1.7581474,299.81175,468.41561)"/><path id="path10661" fill="url(#linearGradient6363)" fill-opacity="1" stroke="none" d="m 80.963729,28.526606 c 0,4.491029 -3.640699,8.131728 -8.131728,8.131728 -4.49103,0 -8.131728,-3.640699 -8.131728,-8.131728 0,-4.49103 3.640698,-8.131729 8.131728,-8.131729 4.491029,0 8.131728,3.640699 8.131728,8.131729 z" transform="matrix(3.5070298,0,0,3.5070298,-1.4261658,330.31861)"/><path id="path10663" fill="url(#linearGradient6361)" fill-opacity="1" stroke="none" d="m 80.963729,28.526606 c 0,4.491029 -3.640699,8.131728 -8.131728,8.131728 -4.49103,0 -8.131728,-3.640699 -8.131728,-8.131728 0,-4.49103 3.640698,-8.131729 8.131728,-8.131729 4.491029,0 8.131728,3.640699 8.131728,8.131729 z" transform="matrix(3.5070298,0,0,3.5070298,174.57384,330.31861)"/><path id="path10665" fill="url(#linearGradient6359)" fill-opacity="1" stroke="none" d="m 80.963729,28.526606 c 0,4.491029 -3.640699,8.131728 -8.131728,8.131728 -4.49103,0 -8.131728,-3.640699 -8.131728,-8.131728 0,-4.49103 3.640698,-8.131729 8.131728,-8.131729 4.491029,0 8.131728,3.640699 8.131728,8.131729 z" transform="matrix(3.5070298,0,0,3.5070298,-1.4261658,514.31861)"/><path id="path10667" fill="url(#linearGradient6357)" fill-opacity="1" stroke="none" d="m 80.963729,28.526606 c 0,4.491029 -3.640699,8.131728 -8.131728,8.131728 -4.49103,0 -8.131728,-3.640699 -8.131728,-8.131728 0,-4.49103 3.640698,-8.131729 8.131728,-8.131729 4.491029,0 8.131728,3.640699 8.131728,8.131729 z" transform="matrix(3.5070298,0,0,3.5070298,174.57384,514.31861)"/><path id="path10675" fill="#fff" fill-opacity="1" stroke="none" d="m 401.60451,617.50737 c -0.0972,0.95872 -0.0952,1.8692 -0.0952,2.8536 0,15.75016 12.69064,28.53596 28.4408,28.53596 15.7502,0 28.53604,-12.7858 28.53604,-28.53596 0,-0.9844 0.002,-1.89488 -0.0948,-2.8536 -1.58832,14.24616 -13.77088,25.30188 -28.44092,25.30188 -14.67,0 -26.7574,-11.05572 -28.34572,-25.30188 z"/><path id="path10677" fill="#fff" fill-opacity="1" stroke="none" d="m 225.60455,617.50737 c -0.0972,0.95872 -0.0952,1.8692 -0.0952,2.8536 0,15.75016 12.69068,28.53596 28.44084,28.53596 15.7502,0 28.53604,-12.7858 28.53604,-28.53596 0,-0.9844 0.002,-1.89488 -0.0948,-2.8536 -1.5884,14.24616 -13.77088,25.30188 -28.44092,25.30188 -14.67004,0 -26.75744,-11.05572 -28.34572,-25.30188 z"/><path id="path10679" fill="#fff" fill-opacity="1" stroke="none" d="m 225.60455,433.50737 c -0.0972,0.95872 -0.0952,1.8692 -0.0952,2.8536 0,15.75016 12.69068,28.53596 28.44084,28.53596 15.7502,0 28.53604,-12.7858 28.53604,-28.53596 0,-0.9844 0.002,-1.89488 -0.0948,-2.8536 -1.5884,14.24616 -13.77088,25.30188 -28.44092,25.30188 -14.67004,0 -26.75744,-11.05572 -28.34572,-25.30188 z"/><path id="path10681" fill="#fff" fill-opacity="1" stroke="none" d="m 401.60451,433.50737 c -0.0972,0.95872 -0.0952,1.8692 -0.0952,2.8536 0,15.75016 12.69064,28.53596 28.4408,28.53596 15.7502,0 28.53604,-12.7858 28.53604,-28.53596 0,-0.9844 0.002,-1.89488 -0.0948,-2.8536 -1.58832,14.24616 -13.77088,25.30188 -28.44092,25.30188 -14.67,0 -26.7574,-11.05572 -28.34572,-25.30188 z"/></g></svg>