<svg xmlns="http://www.w3.org/2000/svg" xmlns:svg="http://www.w3.org/2000/svg" xmlns:xlink="http://www.w3.org/1999/xlink" id="svg6450" width="319.173" height="313.177" version="1.1"><defs id="defs6452"><filter id="filter10343" color-interpolation-filters="sRGB"><feGaussianBlur id="feGaussianBlur10345" stdDeviation=".743"/></filter><linearGradient id="linearGradient6387" x1="264.286" x2="264.286" y1="573.262" y2="649.319" gradientTransform="translate(-156.86107,344.60697)" gradientUnits="userSpaceOnUse" xlink:href="#linearGradient9356"/><linearGradient id="linearGradient9356"><stop id="stop9358" offset="0" stop-color="#f9f8f8" stop-opacity="1"/><stop id="stop9364" offset=".07" stop-color="#ececec" stop-opacity="1"/><stop id="stop9366" offset=".933" stop-color="#e8e7e7" stop-opacity="1"/><stop id="stop9360" offset="1" stop-color="#b4b3b4" stop-opacity="1"/></linearGradient><linearGradient id="linearGradient6389" x1="248.757" x2="249.814" y1="634.691" y2="664.505" gradientTransform="translate(-156.86107,344.60697)" gradientUnits="userSpaceOnUse" xlink:href="#linearGradient9376"/><linearGradient id="linearGradient9376"><stop id="stop9378" offset="0" stop-color="#dad9d9" stop-opacity="1"/><stop id="stop9384" offset=".28" stop-color="#dad9d9" stop-opacity="1"/><stop id="stop9380" offset="1" stop-color="#000" stop-opacity="1"/></linearGradient><radialGradient id="radialGradient6391" cx="103.591" cy="94.288" r="25.809" fx="103.591" fy="94.288" gradientTransform="matrix(1,0,0,0.84931512,0,14.207706)" gradientUnits="userSpaceOnUse" xlink:href="#linearGradient9498"/><linearGradient id="linearGradient9498"><stop id="stop9500" offset="0" stop-color="#fff" stop-opacity="1"/><stop id="stop9502" offset="1" stop-color="#fff" stop-opacity="0"/></linearGradient><filter id="filter9518" color-interpolation-filters="sRGB"><feGaussianBlur id="feGaussianBlur9520" stdDeviation=".714"/></filter><radialGradient id="radialGradient6393" cx="103.591" cy="94.288" r="25.809" fx="103.591" fy="94.288" gradientTransform="matrix(1,0,0,0.84931512,0,14.207706)" gradientUnits="userSpaceOnUse" xlink:href="#linearGradient9498"/><linearGradient id="linearGradient6395" x1="72.832" x2="72.832" y1="20.395" y2="36.658" gradientUnits="userSpaceOnUse" xlink:href="#linearGradient9462"/><linearGradient id="linearGradient9462"><stop id="stop9464" offset="0" stop-color="#a40000" stop-opacity="1"/><stop id="stop9466" offset="1" stop-color="#ef2929" stop-opacity="1"/></linearGradient><linearGradient id="linearGradient6311" x1="264.286" x2="264.286" y1="573.262" y2="649.319" gradientTransform="matrix(4,0,0,4,-783.13173,-2030.3009)" gradientUnits="userSpaceOnUse" xlink:href="#linearGradient9356-5"/><linearGradient id="linearGradient9356-5"><stop id="stop9358-1" offset="0" stop-color="#f9f8f8" stop-opacity="1"/><stop id="stop9364-4" offset=".07" stop-color="#ececec" stop-opacity="1"/><stop id="stop9366-2" offset=".933" stop-color="#e8e7e7" stop-opacity="1"/><stop id="stop9360-0" offset="1" stop-color="#b4b3b4" stop-opacity="1"/></linearGradient><linearGradient id="linearGradient6313" x1="248.757" x2="249.814" y1="634.691" y2="664.505" gradientTransform="matrix(4,0,0,4,-783.13173,-2030.3009)" gradientUnits="userSpaceOnUse" xlink:href="#linearGradient9376-4"/><linearGradient id="linearGradient9376-4"><stop id="stop9378-1" offset="0" stop-color="#dad9d9" stop-opacity="1"/><stop id="stop9384-4" offset=".28" stop-color="#dad9d9" stop-opacity="1"/><stop id="stop9380-6" offset="1" stop-color="#000" stop-opacity="1"/></linearGradient><linearGradient id="linearGradient6584" x1="264.286" x2="264.286" y1="573.262" y2="649.319" gradientTransform="matrix(4,0,0,4,-707.14278,-2038.767)" gradientUnits="userSpaceOnUse" xlink:href="#linearGradient9356-5"/><linearGradient id="linearGradient6586" x1="248.757" x2="249.814" y1="634.691" y2="664.505" gradientTransform="matrix(4,0,0,4,-707.14278,-2038.767)" gradientUnits="userSpaceOnUse" xlink:href="#linearGradient9376-4"/><linearGradient id="linearGradient6379" x1="72.832" x2="72.832" y1="20.395" y2="36.658" gradientUnits="userSpaceOnUse" xlink:href="#linearGradient9462-5"/><linearGradient id="linearGradient9462-5"><stop id="stop9464-2" offset="0" stop-color="#a40000" stop-opacity="1"/><stop id="stop9466-3" offset="1" stop-color="#ef2929" stop-opacity="1"/></linearGradient><linearGradient id="linearGradient6381" x1="72.832" x2="72.832" y1="20.395" y2="36.658" gradientUnits="userSpaceOnUse" xlink:href="#linearGradient9462-5"/><radialGradient id="radialGradient6383" cx="103.591" cy="94.288" r="25.809" fx="103.591" fy="94.288" gradientTransform="matrix(1,0,0,0.84931512,0,14.207706)" gradientUnits="userSpaceOnUse" xlink:href="#linearGradient9498-2"/><linearGradient id="linearGradient9498-2"><stop id="stop9500-1" offset="0" stop-color="#fff" stop-opacity="1"/><stop id="stop9502-6" offset="1" stop-color="#fff" stop-opacity="0"/></linearGradient><filter id="filter9518-9" color-interpolation-filters="sRGB"><feGaussianBlur id="feGaussianBlur9520-2" stdDeviation=".714"/></filter><radialGradient id="radialGradient6385" cx="103.591" cy="94.288" r="25.809" fx="103.591" fy="94.288" gradientTransform="matrix(1,0,0,0.84931512,0,14.207706)" gradientUnits="userSpaceOnUse" xlink:href="#linearGradient9498-2"/><linearGradient id="linearGradient6311-7" x1="264.286" x2="264.286" y1="573.262" y2="649.319" gradientTransform="matrix(4,0,0,4,-715.14492,-2044.7671)" gradientUnits="userSpaceOnUse" xlink:href="#linearGradient9356-50"/><linearGradient id="linearGradient9356-50"><stop id="stop9358-8" offset="0" stop-color="#f9f8f8" stop-opacity="1"/><stop id="stop9364-0" offset=".07" stop-color="#ececec" stop-opacity="1"/><stop id="stop9366-7" offset=".933" stop-color="#e8e7e7" stop-opacity="1"/><stop id="stop9360-3" offset="1" stop-color="#b4b3b4" stop-opacity="1"/></linearGradient><linearGradient id="linearGradient6313-6" x1="248.757" x2="249.814" y1="634.691" y2="664.505" gradientTransform="matrix(4,0,0,4,-715.14492,-2044.7671)" gradientUnits="userSpaceOnUse" xlink:href="#linearGradient9376-40"/><linearGradient id="linearGradient9376-40"><stop id="stop9378-8" offset="0" stop-color="#dad9d9" stop-opacity="1"/><stop id="stop9384-5" offset=".28" stop-color="#dad9d9" stop-opacity="1"/><stop id="stop9380-5" offset="1" stop-color="#000" stop-opacity="1"/></linearGradient><filter id="filter10343-3" color-interpolation-filters="sRGB"><feGaussianBlur id="feGaussianBlur10345-0" stdDeviation=".743"/></filter></defs><metadata id="metadata6455"/><g id="layer1" transform="translate(-190.41347,-249.80724)"><rect id="rect10549" width="74.286" height="74.286" x="96.107" y="683.719" fill="#888a85" fill-opacity="1" stroke="#888a85" stroke-dasharray="none" stroke-miterlimit="4" stroke-opacity="1" stroke-width=".443" filter="url(#filter10343-3)" opacity=".722" ry="9.286" transform="matrix(4,0,0,4,-180.00216,-2477.0527)"/><rect id="rect10551" width="297.143" height="297.143" x="193.426" y="251.824" fill="url(#linearGradient6311-7)" fill-opacity="1" stroke="url(#linearGradient6313-6)" stroke-dasharray="none" stroke-miterlimit="4" stroke-opacity="1" stroke-width="1.772" ry="37.143"/><path id="path10553" fill="url(#radialGradient6385)" fill-opacity="1" stroke="none" d="m 129.40054,94.287537 c 0,12.106253 -11.55526,21.920313 -25.8094,21.920313 -14.254135,0 -25.809396,-9.81406 -25.809396,-21.920313 0,-12.106254 11.555261,-21.920311 25.809396,-21.920311 14.25414,0 25.8094,9.814057 25.8094,21.920311 z" filter="url(#filter9518-9)" opacity=".763" transform="matrix(3.4288818,0,0,2.1937586,-70.417171,95.920139)"/><path id="path10555" fill="url(#radialGradient6383)" fill-opacity="1" stroke="none" d="m 129.40054,94.287537 c 0,12.106253 -11.55526,21.920313 -25.8094,21.920313 -14.254135,0 -25.809396,-9.81406 -25.809396,-21.920313 0,-12.106254 11.555261,-21.920311 25.809396,-21.920311 14.25414,0 25.8094,9.814057 25.8094,21.920311 z" filter="url(#filter9518-9)" opacity=".763" transform="matrix(1.4249037,0,0,1.7581474,299.81176,342.4493)"/><path id="path10565" fill="url(#linearGradient6381)" fill-opacity="1" stroke="none" d="m 80.963729,28.526606 c 0,4.491029 -3.640699,8.131728 -8.131728,8.131728 -4.49103,0 -8.131728,-3.640699 -8.131728,-8.131728 0,-4.49103 3.640698,-8.131729 8.131728,-8.131729 4.491029,0 8.131728,3.640699 8.131728,8.131729 z" transform="matrix(3.5070298,0,0,3.5070298,174.57385,204.3523)"/><path id="path10567" fill="url(#linearGradient6379)" fill-opacity="1" stroke="none" d="m 80.963729,28.526606 c 0,4.491029 -3.640699,8.131728 -8.131728,8.131728 -4.49103,0 -8.131728,-3.640699 -8.131728,-8.131728 0,-4.49103 3.640698,-8.131729 8.131728,-8.131729 4.491029,0 8.131728,3.640699 8.131728,8.131729 z" transform="matrix(3.5070298,0,0,3.5070298,-1.4261615,388.3523)"/><path id="path10579" fill="#fff" fill-opacity="1" stroke="none" d="m 225.60456,491.54106 c -0.0972,0.95872 -0.0952,1.8692 -0.0952,2.8536 0,15.75016 12.69069,28.53596 28.44085,28.53596 15.7502,0 28.53604,-12.7858 28.53604,-28.53596 0,-0.9844 0.002,-1.89488 -0.0948,-2.8536 -1.5884,14.24616 -13.77088,25.30188 -28.44092,25.30188 -14.67005,0 -26.75744,-11.05572 -28.34572,-25.30188 z"/><path id="path10583" fill="#fff" fill-opacity="1" stroke="none" d="m 401.60452,307.54106 c -0.0972,0.95872 -0.0952,1.8692 -0.0952,2.8536 0,15.75016 12.69064,28.53596 28.4408,28.53596 15.7502,0 28.53607,-12.7858 28.53607,-28.53596 0,-0.9844 0,-1.89488 -0.095,-2.8536 -1.5884,14.24616 -13.77091,25.30188 -28.44095,25.30188 -14.67,0 -26.7574,-11.05572 -28.34572,-25.30188 z"/></g></svg>