<svg xmlns="http://www.w3.org/2000/svg" xmlns:svg="http://www.w3.org/2000/svg" xmlns:xlink="http://www.w3.org/1999/xlink" id="svg7219" width="319.173" height="313.177" version="1.1"><defs id="defs7221"><linearGradient id="linearGradient6357" x1="72.832" x2="72.832" y1="20.395" y2="36.658" gradientUnits="userSpaceOnUse" xlink:href="#linearGradient9462"/><linearGradient id="linearGradient9462"><stop id="stop9464" offset="0" stop-color="#a40000" stop-opacity="1"/><stop id="stop9466" offset="1" stop-color="#ef2929" stop-opacity="1"/></linearGradient><linearGradient id="linearGradient6359" x1="72.832" x2="72.832" y1="20.395" y2="36.658" gradientUnits="userSpaceOnUse" xlink:href="#linearGradient9462"/><linearGradient id="linearGradient6361" x1="72.832" x2="72.832" y1="20.395" y2="36.658" gradientUnits="userSpaceOnUse" xlink:href="#linearGradient9462"/><linearGradient id="linearGradient6363" x1="72.832" x2="72.832" y1="20.395" y2="36.658" gradientUnits="userSpaceOnUse" xlink:href="#linearGradient9462"/><radialGradient id="radialGradient6365" cx="103.591" cy="94.288" r="25.809" fx="103.591" fy="94.288" gradientTransform="matrix(1,0,0,0.84931512,0,14.207706)" gradientUnits="userSpaceOnUse" xlink:href="#linearGradient9498"/><linearGradient id="linearGradient9498"><stop id="stop9500" offset="0" stop-color="#fff" stop-opacity="1"/><stop id="stop9502" offset="1" stop-color="#fff" stop-opacity="0"/></linearGradient><filter id="filter9518" color-interpolation-filters="sRGB"><feGaussianBlur id="feGaussianBlur9520" stdDeviation=".714"/></filter><radialGradient id="radialGradient6367" cx="103.591" cy="94.288" r="25.809" fx="103.591" fy="94.288" gradientTransform="matrix(1,0,0,0.84931512,0,14.207706)" gradientUnits="userSpaceOnUse" xlink:href="#linearGradient9498"/><linearGradient id="linearGradient6285" x1="264.286" x2="264.286" y1="573.262" y2="649.319" gradientTransform="matrix(4,0,0,4,-793.71635,-2038.8008)" gradientUnits="userSpaceOnUse" xlink:href="#linearGradient9356"/><linearGradient id="linearGradient9356"><stop id="stop9358" offset="0" stop-color="#f9f8f8" stop-opacity="1"/><stop id="stop9364" offset=".07" stop-color="#ececec" stop-opacity="1"/><stop id="stop9366" offset=".933" stop-color="#e8e7e7" stop-opacity="1"/><stop id="stop9360" offset="1" stop-color="#b4b3b4" stop-opacity="1"/></linearGradient><linearGradient id="linearGradient6287" x1="248.757" x2="249.814" y1="634.691" y2="664.505" gradientTransform="matrix(4,0,0,4,-793.71635,-2038.8008)" gradientUnits="userSpaceOnUse" xlink:href="#linearGradient9376"/><linearGradient id="linearGradient9376"><stop id="stop9378" offset="0" stop-color="#dad9d9" stop-opacity="1"/><stop id="stop9384" offset=".28" stop-color="#dad9d9" stop-opacity="1"/><stop id="stop9380" offset="1" stop-color="#000" stop-opacity="1"/></linearGradient><filter id="filter10343" color-interpolation-filters="sRGB"><feGaussianBlur id="feGaussianBlur10345" stdDeviation=".743"/></filter><linearGradient id="linearGradient6343" x1="72.832" x2="72.832" y1="20.395" y2="36.658" gradientUnits="userSpaceOnUse" xlink:href="#linearGradient9462-0"/><linearGradient id="linearGradient9462-0"><stop id="stop9464-1" offset="0" stop-color="#a40000" stop-opacity="1"/><stop id="stop9466-6" offset="1" stop-color="#ef2929" stop-opacity="1"/></linearGradient><linearGradient id="linearGradient6345" x1="72.832" x2="72.832" y1="20.395" y2="36.658" gradientUnits="userSpaceOnUse" xlink:href="#linearGradient9462-0"/><linearGradient id="linearGradient6347" x1="72.832" x2="72.832" y1="20.395" y2="36.658" gradientUnits="userSpaceOnUse" xlink:href="#linearGradient9462-0"/><linearGradient id="linearGradient6349" x1="72.832" x2="72.832" y1="20.395" y2="36.658" gradientUnits="userSpaceOnUse" xlink:href="#linearGradient9462-0"/><linearGradient id="linearGradient6351" x1="72.832" x2="72.832" y1="20.395" y2="36.658" gradientUnits="userSpaceOnUse" xlink:href="#linearGradient9462-0"/><radialGradient id="radialGradient6353" cx="103.591" cy="94.288" r="25.809" fx="103.591" fy="94.288" gradientTransform="matrix(1,0,0,0.84931512,0,14.207706)" gradientUnits="userSpaceOnUse" xlink:href="#linearGradient9498-0"/><linearGradient id="linearGradient9498-0"><stop id="stop9500-8" offset="0" stop-color="#fff" stop-opacity="1"/><stop id="stop9502-8" offset="1" stop-color="#fff" stop-opacity="0"/></linearGradient><filter id="filter9518-1" color-interpolation-filters="sRGB"><feGaussianBlur id="feGaussianBlur9520-0" stdDeviation=".714"/></filter><radialGradient id="radialGradient6355" cx="103.591" cy="94.288" r="25.809" fx="103.591" fy="94.288" gradientTransform="matrix(1,0,0,0.84931512,0,14.207706)" gradientUnits="userSpaceOnUse" xlink:href="#linearGradient9498-0"/><linearGradient id="linearGradient6269" x1="264.286" x2="264.286" y1="573.262" y2="649.319" gradientTransform="matrix(4,0,0,4,-715.14498,-1918.8008)" gradientUnits="userSpaceOnUse" xlink:href="#linearGradient9356-9"/><linearGradient id="linearGradient9356-9"><stop id="stop9358-3" offset="0" stop-color="#f9f8f8" stop-opacity="1"/><stop id="stop9364-4" offset=".07" stop-color="#ececec" stop-opacity="1"/><stop id="stop9366-3" offset=".933" stop-color="#e8e7e7" stop-opacity="1"/><stop id="stop9360-1" offset="1" stop-color="#b4b3b4" stop-opacity="1"/></linearGradient><linearGradient id="linearGradient6271" x1="248.757" x2="249.814" y1="634.691" y2="664.505" gradientTransform="matrix(4,0,0,4,-715.14498,-1918.8008)" gradientUnits="userSpaceOnUse" xlink:href="#linearGradient9376-8"/><linearGradient id="linearGradient9376-8"><stop id="stop9378-8" offset="0" stop-color="#dad9d9" stop-opacity="1"/><stop id="stop9384-9" offset=".28" stop-color="#dad9d9" stop-opacity="1"/><stop id="stop9380-8" offset="1" stop-color="#000" stop-opacity="1"/></linearGradient><filter id="filter10343-3" color-interpolation-filters="sRGB"><feGaussianBlur id="feGaussianBlur10345-0" stdDeviation=".743"/></filter></defs><metadata id="metadata7224"/><g id="layer1" transform="translate(-190.41347,-375.77354)"><rect id="rect10729" width="74.286" height="74.286" x="-3.893" y="883.719" fill="#888a85" fill-opacity="1" stroke="#888a85" stroke-dasharray="none" stroke-miterlimit="4" stroke-opacity="1" stroke-width=".443" filter="url(#filter10343-3)" opacity=".722" ry="9.286" transform="matrix(4,0,0,4,219.99784,-3151.0864)"/><rect id="rect10731" width="297.143" height="297.143" x="193.426" y="377.791" fill="url(#linearGradient6269)" fill-opacity="1" stroke="url(#linearGradient6271)" stroke-dasharray="none" stroke-miterlimit="4" stroke-opacity="1" stroke-width="1.772" ry="37.143"/><path id="path10733" fill="url(#radialGradient6355)" fill-opacity="1" stroke="none" d="m 129.40054,94.287537 c 0,12.106253 -11.55526,21.920313 -25.8094,21.920313 -14.254135,0 -25.809396,-9.81406 -25.809396,-21.920313 0,-12.106254 11.555261,-21.920311 25.809396,-21.920311 14.25414,0 25.8094,9.814057 25.8094,21.920311 z" filter="url(#filter9518-1)" opacity=".763" transform="matrix(3.4288818,0,0,2.1937586,-70.417172,221.88645)"/><path id="path10735" fill="url(#radialGradient6353)" fill-opacity="1" stroke="none" d="m 129.40054,94.287537 c 0,12.106253 -11.55526,21.920313 -25.8094,21.920313 -14.254135,0 -25.809396,-9.81406 -25.809396,-21.920313 0,-12.106254 11.555261,-21.920311 25.809396,-21.920311 14.25414,0 25.8094,9.814057 25.8094,21.920311 z" filter="url(#filter9518-1)" opacity=".763" transform="matrix(1.4249037,0,0,1.7581474,299.81179,468.41564)"/><path id="path10737" fill="url(#linearGradient6351)" fill-opacity="1" stroke="none" d="m 80.963729,28.526606 c 0,4.491029 -3.640699,8.131728 -8.131728,8.131728 -4.49103,0 -8.131728,-3.640699 -8.131728,-8.131728 0,-4.49103 3.640698,-8.131729 8.131728,-8.131729 4.491029,0 8.131728,3.640699 8.131728,8.131729 z" transform="matrix(3.5070298,0,0,3.5070298,86.573848,426.31864)"/><path id="path10743" fill="url(#linearGradient6349)" fill-opacity="1" stroke="none" d="m 80.963729,28.526606 c 0,4.491029 -3.640699,8.131728 -8.131728,8.131728 -4.49103,0 -8.131728,-3.640699 -8.131728,-8.131728 0,-4.49103 3.640698,-8.131729 8.131728,-8.131729 4.491029,0 8.131728,3.640699 8.131728,8.131729 z" transform="matrix(3.5070298,0,0,3.5070298,-1.4261516,330.31864)"/><path id="path10745" fill="url(#linearGradient6347)" fill-opacity="1" stroke="none" d="m 80.963729,28.526606 c 0,4.491029 -3.640699,8.131728 -8.131728,8.131728 -4.49103,0 -8.131728,-3.640699 -8.131728,-8.131728 0,-4.49103 3.640698,-8.131729 8.131728,-8.131729 4.491029,0 8.131728,3.640699 8.131728,8.131729 z" transform="matrix(3.5070298,0,0,3.5070298,174.57384,330.31864)"/><path id="path10747" fill="url(#linearGradient6345)" fill-opacity="1" stroke="none" d="m 80.963729,28.526606 c 0,4.491029 -3.640699,8.131728 -8.131728,8.131728 -4.49103,0 -8.131728,-3.640699 -8.131728,-8.131728 0,-4.49103 3.640698,-8.131729 8.131728,-8.131729 4.491029,0 8.131728,3.640699 8.131728,8.131729 z" transform="matrix(3.5070298,0,0,3.5070298,-1.4261516,514.31864)"/><path id="path10749" fill="url(#linearGradient6343)" fill-opacity="1" stroke="none" d="m 80.963729,28.526606 c 0,4.491029 -3.640699,8.131728 -8.131728,8.131728 -4.49103,0 -8.131728,-3.640699 -8.131728,-8.131728 0,-4.49103 3.640698,-8.131729 8.131728,-8.131729 4.491029,0 8.131728,3.640699 8.131728,8.131729 z" transform="matrix(3.5070298,0,0,3.5070298,174.57384,514.31864)"/><path id="path10751" fill="#fff" fill-opacity="1" stroke="none" d="m 313.60455,529.50724 c -0.0972,0.9588 -0.0952,1.8694 -0.0952,2.8536 0,15.7502 12.69068,28.536 28.44084,28.536 15.7502,0 28.53604,-12.7858 28.53604,-28.536 0,-0.9842 0.002,-1.8948 -0.0948,-2.8536 -1.58836,14.2462 -13.77088,25.302 -28.44092,25.302 -14.67,0 -26.7574,-11.0558 -28.34572,-25.302 z"/><path id="path10757" fill="#fff" fill-opacity="1" stroke="none" d="m 401.60455,617.50724 c -0.0972,0.9588 -0.0952,1.8694 -0.0952,2.8538 0,15.75 12.69068,28.5358 28.44084,28.5358 15.7502,0 28.53604,-12.7858 28.53604,-28.5358 0,-0.9844 0.002,-1.895 -0.0948,-2.8538 -1.58836,14.2462 -13.77088,25.302 -28.44092,25.302 -14.67,0 -26.7574,-11.0558 -28.34572,-25.302 z"/><path id="path10759" fill="#fff" fill-opacity="1" stroke="none" d="m 225.60454,617.50724 c -0.0972,0.9588 -0.0952,1.8694 -0.0952,2.8538 0,15.75 12.69068,28.5358 28.44084,28.5358 15.7502,0 28.53604,-12.7858 28.53604,-28.5358 0,-0.9844 0.002,-1.895 -0.0948,-2.8538 -1.58836,14.2462 -13.77088,25.302 -28.44092,25.302 -14.67,0 -26.7574,-11.0558 -28.34572,-25.302 z"/><path id="path10761" fill="#fff" fill-opacity="1" stroke="none" d="m 225.60454,433.50734 c -0.0972,0.9588 -0.0952,1.8692 -0.0952,2.8536 0,15.7502 12.69068,28.536 28.44084,28.536 15.7502,0 28.53604,-12.7858 28.53604,-28.536 0,-0.9844 0.002,-1.8948 -0.0948,-2.8536 -1.58836,14.2462 -13.77088,25.3019 -28.44092,25.3019 -14.67,0 -26.7574,-11.0557 -28.34572,-25.3019 z"/><path id="path10763" fill="#fff" fill-opacity="1" stroke="none" d="m 401.60455,433.50734 c -0.0972,0.9588 -0.0952,1.8692 -0.0952,2.8536 0,15.7502 12.69068,28.536 28.44084,28.536 15.7502,0 28.53604,-12.7858 28.53604,-28.536 0,-0.9844 0.002,-1.8948 -0.0948,-2.8536 -1.58836,14.2462 -13.77088,25.3019 -28.44092,25.3019 -14.67,0 -26.7574,-11.0557 -28.34572,-25.3019 z"/></g></svg>