<svg xmlns="http://www.w3.org/2000/svg" xmlns:svg="http://www.w3.org/2000/svg" xmlns:xlink="http://www.w3.org/1999/xlink" id="svg7695" width="319.173" height="313.177" version="1.1"><defs id="defs7697"><filter id="filter10343" color-interpolation-filters="sRGB"><feGaussianBlur id="feGaussianBlur10345" stdDeviation=".743"/></filter><linearGradient id="linearGradient6323" x1="264.286" x2="264.286" y1="573.262" y2="649.319" gradientTransform="translate(-156.86107,344.60697)" gradientUnits="userSpaceOnUse" xlink:href="#linearGradient9356"/><linearGradient id="linearGradient9356"><stop id="stop9358" offset="0" stop-color="#f9f8f8" stop-opacity="1"/><stop id="stop9364" offset=".07" stop-color="#ececec" stop-opacity="1"/><stop id="stop9366" offset=".933" stop-color="#e8e7e7" stop-opacity="1"/><stop id="stop9360" offset="1" stop-color="#b4b3b4" stop-opacity="1"/></linearGradient><linearGradient id="linearGradient6325" x1="248.757" x2="249.814" y1="634.691" y2="664.505" gradientTransform="translate(-156.86107,344.60697)" gradientUnits="userSpaceOnUse" xlink:href="#linearGradient9376"/><linearGradient id="linearGradient9376"><stop id="stop9378" offset="0" stop-color="#dad9d9" stop-opacity="1"/><stop id="stop9384" offset=".28" stop-color="#dad9d9" stop-opacity="1"/><stop id="stop9380" offset="1" stop-color="#000" stop-opacity="1"/></linearGradient><radialGradient id="radialGradient6327" cx="103.591" cy="94.288" r="25.809" fx="103.591" fy="94.288" gradientTransform="matrix(1,0,0,0.84931512,0,14.207706)" gradientUnits="userSpaceOnUse" xlink:href="#linearGradient9498"/><linearGradient id="linearGradient9498"><stop id="stop9500" offset="0" stop-color="#fff" stop-opacity="1"/><stop id="stop9502" offset="1" stop-color="#fff" stop-opacity="0"/></linearGradient><filter id="filter9518" color-interpolation-filters="sRGB"><feGaussianBlur id="feGaussianBlur9520" stdDeviation=".714"/></filter><radialGradient id="radialGradient6329" cx="103.591" cy="94.288" r="25.809" fx="103.591" fy="94.288" gradientTransform="matrix(1,0,0,0.84931512,0,14.207706)" gradientUnits="userSpaceOnUse" xlink:href="#linearGradient9498"/><linearGradient id="linearGradient6331" x1="72.832" x2="72.832" y1="20.395" y2="36.658" gradientUnits="userSpaceOnUse" xlink:href="#linearGradient9462"/><linearGradient id="linearGradient9462"><stop id="stop9464" offset="0" stop-color="#a40000" stop-opacity="1"/><stop id="stop9466" offset="1" stop-color="#ef2929" stop-opacity="1"/></linearGradient><linearGradient id="linearGradient6333" x1="72.832" x2="72.832" y1="20.395" y2="36.658" gradientUnits="userSpaceOnUse" xlink:href="#linearGradient9462"/><linearGradient id="linearGradient6335" x1="72.832" x2="72.832" y1="20.395" y2="36.658" gradientUnits="userSpaceOnUse" xlink:href="#linearGradient9462"/><linearGradient id="linearGradient6337" x1="72.832" x2="72.832" y1="20.395" y2="36.658" gradientUnits="userSpaceOnUse" xlink:href="#linearGradient9462"/><linearGradient id="linearGradient6339" x1="72.832" x2="72.832" y1="20.395" y2="36.658" gradientUnits="userSpaceOnUse" xlink:href="#linearGradient9462"/><linearGradient id="linearGradient6341" x1="72.832" x2="72.832" y1="20.395" y2="36.658" gradientUnits="userSpaceOnUse" xlink:href="#linearGradient9462"/></defs><metadata id="metadata7700"/><g id="layer1" transform="translate(-190.41347,-375.77348)"><g id="g10765" transform="matrix(4,0,0,4,-87.700655,-3297.2288)"><rect id="rect10767" width="74.286" height="74.286" x="73.032" y="920.255" fill="#888a85" fill-opacity="1" stroke="#888a85" stroke-dasharray="none" stroke-miterlimit="4" stroke-opacity="1" stroke-width=".443" filter="url(#filter10343)" opacity=".722" ry="9.286"/><rect id="rect10769" width="74.286" height="74.286" x="70.282" y="918.755" fill="url(#linearGradient6323)" fill-opacity="1" stroke="url(#linearGradient6325)" stroke-dasharray="none" stroke-miterlimit="4" stroke-opacity="1" stroke-width=".443" ry="9.286"/><path id="path10771" fill="url(#radialGradient6327)" fill-opacity="1" stroke="none" d="m 129.40054,94.287537 c 0,12.106253 -11.55526,21.920313 -25.8094,21.920313 -14.254135,0 -25.809396,-9.81406 -25.809396,-21.920313 0,-12.106254 11.555261,-21.920311 25.809396,-21.920311 14.25414,0 25.8094,9.814057 25.8094,21.920311 z" filter="url(#filter9518)" opacity=".763" transform="matrix(0.85722043,0,0,0.54843965,4.3208718,879.77879)"/><path id="path10773" fill="url(#radialGradient6329)" fill-opacity="1" stroke="none" d="m 129.40054,94.287537 c 0,12.106253 -11.55526,21.920313 -25.8094,21.920313 -14.254135,0 -25.809396,-9.81406 -25.809396,-21.920313 0,-12.106254 11.555261,-21.920311 25.809396,-21.920311 14.25414,0 25.8094,9.814057 25.8094,21.920311 z" filter="url(#filter9518)" opacity=".763" transform="matrix(0.35622593,0,0,0.43953684,96.878109,941.41108)"/><path id="path10777" fill="url(#linearGradient6331)" fill-opacity="1" stroke="none" d="m 80.963729,28.526606 c 0,4.491029 -3.640699,8.131728 -8.131728,8.131728 -4.49103,0 -8.131728,-3.640699 -8.131728,-8.131728 0,-4.49103 3.640698,-8.131729 8.131728,-8.131729 4.491029,0 8.131728,3.640699 8.131728,8.131729 z" transform="matrix(0.87675745,0,0,0.87675745,21.568626,930.88683)"/><path id="path10779" fill="url(#linearGradient6333)" fill-opacity="1" stroke="none" d="m 80.963729,28.526606 c 0,4.491029 -3.640699,8.131728 -8.131728,8.131728 -4.49103,0 -8.131728,-3.640699 -8.131728,-8.131728 0,-4.49103 3.640698,-8.131729 8.131728,-8.131729 4.491029,0 8.131728,3.640699 8.131728,8.131729 z" transform="matrix(0.87675745,0,0,0.87675745,65.568626,930.88683)"/><path id="path10781" fill="url(#linearGradient6335)" fill-opacity="1" stroke="none" d="m 80.963729,28.526606 c 0,4.491029 -3.640699,8.131728 -8.131728,8.131728 -4.49103,0 -8.131728,-3.640699 -8.131728,-8.131728 0,-4.49103 3.640698,-8.131729 8.131728,-8.131729 4.491029,0 8.131728,3.640699 8.131728,8.131729 z" transform="matrix(0.87675745,0,0,0.87675745,21.568626,906.88683)"/><path id="path10783" fill="url(#linearGradient6337)" fill-opacity="1" stroke="none" d="m 80.963729,28.526606 c 0,4.491029 -3.640699,8.131728 -8.131728,8.131728 -4.49103,0 -8.131728,-3.640699 -8.131728,-8.131728 0,-4.49103 3.640698,-8.131729 8.131728,-8.131729 4.491029,0 8.131728,3.640699 8.131728,8.131729 z" transform="matrix(0.87675745,0,0,0.87675745,65.568626,906.88683)"/><path id="path10785" fill="url(#linearGradient6339)" fill-opacity="1" stroke="none" d="m 80.963729,28.526606 c 0,4.491029 -3.640699,8.131728 -8.131728,8.131728 -4.49103,0 -8.131728,-3.640699 -8.131728,-8.131728 0,-4.49103 3.640698,-8.131729 8.131728,-8.131729 4.491029,0 8.131728,3.640699 8.131728,8.131729 z" transform="matrix(0.87675745,0,0,0.87675745,21.568626,952.88683)"/><path id="path10787" fill="url(#linearGradient6341)" fill-opacity="1" stroke="none" d="m 80.963729,28.526606 c 0,4.491029 -3.640699,8.131728 -8.131728,8.131728 -4.49103,0 -8.131728,-3.640699 -8.131728,-8.131728 0,-4.49103 3.640698,-8.131729 8.131728,-8.131729 4.491029,0 8.131728,3.640699 8.131728,8.131729 z" transform="matrix(0.87675745,0,0,0.87675745,65.568626,952.88683)"/><path id="path10791" fill="#fff" fill-opacity="1" stroke="none" d="m 78.3263,956.68402 c -0.0243,0.23968 -0.0238,0.4673 -0.0238,0.7134 0,3.93754 3.17267,7.13399 7.11021,7.13399 3.93755,0 7.13401,-3.19645 7.13401,-7.13399 0,-0.2461 5.5e-4,-0.47372 -0.0237,-0.7134 -0.39709,3.56154 -3.44272,6.32547 -7.11023,6.32547 -3.6675,0 -6.68935,-2.76393 -7.08643,-6.32547 z"/><path id="path10793" fill="#fff" fill-opacity="1" stroke="none" d="m 122.3263,956.68402 c -0.0243,0.23968 -0.0238,0.4673 -0.0238,0.7134 0,3.93754 3.17267,7.13399 7.11021,7.13399 3.93755,0 7.13401,-3.19645 7.13401,-7.13399 0,-0.2461 5.5e-4,-0.47372 -0.0237,-0.7134 -0.39709,3.56154 -3.44272,6.32547 -7.11023,6.32547 -3.6675,0 -6.68935,-2.76393 -7.08643,-6.32547 z"/><path id="path10795" fill="#fff" fill-opacity="1" stroke="none" d="m 122.3263,978.68402 c -0.0243,0.23968 -0.0238,0.4673 -0.0238,0.7134 0,3.93754 3.17267,7.13399 7.11021,7.13399 3.93755,0 7.13401,-3.19645 7.13401,-7.13399 0,-0.2461 5.5e-4,-0.47372 -0.0237,-0.7134 -0.39709,3.56154 -3.44272,6.32547 -7.11023,6.32547 -3.6675,0 -6.68935,-2.76393 -7.08643,-6.32547 z"/><path id="path10797" fill="#fff" fill-opacity="1" stroke="none" d="m 78.3263,978.68402 c -0.0243,0.23968 -0.0238,0.4673 -0.0238,0.7134 0,3.93754 3.17267,7.13399 7.11021,7.13399 3.93755,0 7.13401,-3.19645 7.13401,-7.13399 0,-0.2461 5.5e-4,-0.47372 -0.0237,-0.7134 -0.39709,3.56154 -3.44272,6.32547 -7.11023,6.32547 -3.6675,0 -6.68935,-2.76393 -7.08643,-6.32547 z"/><path id="path10799" fill="#fff" fill-opacity="1" stroke="none" d="m 78.3263,932.68402 c -0.0243,0.23968 -0.0238,0.4673 -0.0238,0.7134 0,3.93754 3.17267,7.13399 7.11021,7.13399 3.93755,0 7.13401,-3.19645 7.13401,-7.13399 0,-0.2461 5.5e-4,-0.47372 -0.0237,-0.7134 -0.39709,3.56154 -3.44272,6.32547 -7.11023,6.32547 -3.6675,0 -6.68935,-2.76393 -7.08643,-6.32547 z"/><path id="path10801" fill="#fff" fill-opacity="1" stroke="none" d="m 122.3263,932.68402 c -0.0243,0.23968 -0.0238,0.4673 -0.0238,0.7134 0,3.93754 3.17267,7.13399 7.11021,7.13399 3.93755,0 7.13401,-3.19645 7.13401,-7.13399 0,-0.2461 5.5e-4,-0.47372 -0.0237,-0.7134 -0.39709,3.56154 -3.44272,6.32547 -7.11023,6.32547 -3.6675,0 -6.68935,-2.76393 -7.08643,-6.32547 z"/></g></g></svg>